<svg width="48" height="31" viewBox="0 0 48 31" fill="none" xmlns="http://www.w3.org/2000/svg">
<path d="M5.875 0V2.375H2.89062V28.5H5.875V30.875H0V0H5.875ZM41.4219 2.375V0H47.3281V30.875H41.4219V28.5H44.4219V2.375H41.4219Z" fill="#52D1DC"/>
<path d="M18.1094 19.3594V3.25H21.1094V19.3594C21.1094 20.8594 20.8021 22.125 20.1875 23.1562C19.5729 24.1875 18.724 24.974 17.6406 25.5156C16.5677 26.0469 15.3333 26.3125 13.9375 26.3125C12.5417 26.3125 11.3021 26.0729 10.2188 25.5938C9.13542 25.1146 8.28646 24.3854 7.67188 23.4062C7.05729 22.4271 6.75 21.1927 6.75 19.7031H9.76562C9.76562 20.6615 9.94271 21.4479 10.2969 22.0625C10.651 22.6771 11.1406 23.1302 11.7656 23.4219C12.401 23.7135 13.125 23.8594 13.9375 23.8594C14.7292 23.8594 15.4375 23.6927 16.0625 23.3594C16.6979 23.0156 17.1979 22.5104 17.5625 21.8438C17.9271 21.1667 18.1094 20.3385 18.1094 19.3594Z" fill="#F0EDEE"/>
<path d="M29.2344 3.25V26H26.2188V3.25H29.2344ZM38.7656 13.4844V15.9531H28.5781V13.4844H38.7656ZM40.3125 3.25V5.71875H28.5781V3.25H40.3125Z" fill="#C59849"/>
</svg>
